<svg xmlns="http://www.w3.org/2000/svg" width="409" height="409" viewBox="0 0 409 409">
  <g id="Group_510" data-name="Group 510" transform="translate(903 1338)">
    <rect id="Rectangle_199" data-name="Rectangle 199" width="409" height="409" rx="3" transform="translate(-903 -1338)" fill="#aa6732"/>
    <g id="home_4_" data-name="home (4)" transform="translate(-823.749 -1258.75)" opacity="0.391">
      <g id="Group_490" data-name="Group 490" transform="translate(214.408 173.289)">
        <g id="Group_489" data-name="Group 489">
          <path id="Path_81" data-name="Path 81" d="M446.356,355.434a4.891,4.891,0,1,0,1.435,3.461A4.928,4.928,0,0,0,446.356,355.434Z" transform="translate(-438 -354)" fill="#f9f5e9"/>
        </g>
      </g>
      <g id="Group_492" data-name="Group 492" transform="translate(0 0.001)">
        <g id="Group_491" data-name="Group 491">
          <path id="Path_82" data-name="Path 82" d="M245.737,240.842H224.2V195.317a4.9,4.9,0,0,0-9.79,0v45.525H59.721V194.828a4.9,4.9,0,0,0-9.79,0v46.015H36.224V112.1l89.092-69.554L214.408,112.1v46.5a4.9,4.9,0,0,0,9.79,0v-38.86l.856.668a4.894,4.894,0,0,0,6.473-.4l17.656-17.657a4.9,4.9,0,0,0-.449-7.32L219.3,72.061V23.008a4.9,4.9,0,0,0-4.9-4.9H186.037a4.9,4.9,0,0,0-4.9,4.9v19.26L128.328,1.037a4.9,4.9,0,0,0-6.024,0L1.9,95.038a4.9,4.9,0,0,0-.449,7.32L19.1,120.015a4.9,4.9,0,0,0,6.474.4l.856-.668v121.1H4.9a4.9,4.9,0,0,0,0,9.79H245.737a4.9,4.9,0,1,0,0-9.79ZM190.932,27.9h18.581V64.418L190.932,49.911ZM22.966,110.031,12.285,99.349,125.316,11.106,238.347,99.349l-10.681,10.682L128.328,32.478a4.893,4.893,0,0,0-6.024,0Z" transform="translate(0 -0.001)" fill="#f9f5e9"/>
        </g>
      </g>
      <g id="Group_494" data-name="Group 494" transform="translate(73.427 106.715)">
        <g id="Group_493" data-name="Group 493">
          <path id="Path_83" data-name="Path 83" d="M248.882,218H154.9a4.9,4.9,0,0,0-4.9,4.9v93.987a4.9,4.9,0,0,0,4.9,4.9h93.987a4.9,4.9,0,0,0,4.9-4.9V222.9A4.9,4.9,0,0,0,248.882,218Zm-51.889,93.987h-37.2v-37.2h37.2Zm0-46.994h-37.2v-37.2h37.2Zm46.993,46.994h-37.2v-37.2h37.2Zm0-46.994h-37.2v-37.2h37.2Z" transform="translate(-150 -218)" fill="#f9f5e9"/>
        </g>
      </g>
      <g id="Group_496" data-name="Group 496" transform="translate(49.931 170.6)">
        <g id="Group_495" data-name="Group 495">
          <path id="Path_84" data-name="Path 84" d="M106.9,348.506a4.9,4.9,0,0,0-4.9,4.9v.079a4.9,4.9,0,0,0,9.79,0V353.4A4.9,4.9,0,0,0,106.9,348.506Z" transform="translate(-102 -348.506)" fill="#f9f5e9"/>
        </g>
      </g>
    </g>
  </g>
</svg>
