<svg id="linkedin_3_" data-name="linkedin (3)" xmlns="http://www.w3.org/2000/svg" width="46.888" height="46.888" viewBox="0 0 46.888 46.888">
  <path id="Path_8" data-name="Path 8" d="M38.781,39.665v0h.012v-17.2c0-8.413-1.811-14.893-11.646-14.893a10.21,10.21,0,0,0-9.2,5.054h-.137V8.359H8.489v31.3H18.2v-15.5c0-4.081.774-8.028,5.828-8.028,4.98,0,5.054,4.658,5.054,8.289V39.665Z" transform="translate(8.096 7.223)" fill="#206a86"/>
  <path id="Path_9" data-name="Path 9" d="M.4,7.977h9.721v31.3H.4Z" transform="translate(0.378 7.607)" fill="#206a86"/>
  <path id="Path_10" data-name="Path 10" d="M5.63,0a5.657,5.657,0,1,0,5.63,5.63A5.632,5.632,0,0,0,5.63,0Z" fill="#206a86"/>
</svg>
