<svg id="value_1_" data-name="value (1)" xmlns="http://www.w3.org/2000/svg" width="155.324" height="155.324" viewBox="0 0 155.324 155.324">
  <path id="Path_26" data-name="Path 26" d="M330.221,13.48a2.275,2.275,0,0,0,2.275-2.275V2.275a2.275,2.275,0,0,0-4.551,0v8.93A2.275,2.275,0,0,0,330.221,13.48Z" transform="translate(-228.458)" fill="#f9f5e9"/>
  <path id="Path_27" data-name="Path 27" d="M250.473,29.609a2.275,2.275,0,0,0,3.44-2.978l-5.795-6.693a2.275,2.275,0,0,0-3.44,2.978Z" transform="translate(-170.064 -13.341)" fill="#f9f5e9"/>
  <path id="Path_28" data-name="Path 28" d="M393.454,29.84a2.275,2.275,0,0,0,3.209-.231l5.795-6.693a2.275,2.275,0,0,0-3.44-2.978l-5.795,6.693A2.275,2.275,0,0,0,393.454,29.84Z" transform="translate(-273.545 -13.342)" fill="#f9f5e9"/>
  <path id="Path_29" data-name="Path 29" d="M234.748,138.794a6.782,6.782,0,0,0,9.428,0l35-33.65a6.808,6.808,0,0,0,.721-8.992l-4.7-6.244a2.275,2.275,0,1,0-3.636,2.736l4.034,5.363h-18.06l-4.8-15.838h9.82a2.263,2.263,0,0,1,1.8.9l1.736,2.307a2.275,2.275,0,1,0,3.636-2.736l-1.736-2.307a6.835,6.835,0,0,0-5.435-2.712H216.365a6.836,6.836,0,0,0-5.435,2.712l-11.9,15.822a6.808,6.808,0,0,0,.721,8.992Zm-13.485-36.238,13.029,29.488-30.67-29.488Zm54.038,0-30.669,29.486,13.029-29.487H275.3Zm-35.839,29.928-13.224-29.928h26.448Zm8.522-50.316,4.8,15.838H226.143l4.8-15.838Zm-33.419.9a2.263,2.263,0,0,1,1.8-.9h9.82l-4.8,15.838H203.327Z" transform="translate(-137.699 -54.071)" fill="#f9f5e9"/>
  <path id="Path_30" data-name="Path 30" d="M138.96,319.688l-13.935,8.477a53.143,53.143,0,0,1-45,4.875,6.069,6.069,0,0,1-1.519-10.707L93,312.149a8.432,8.432,0,0,0-6.655-15.134l-37.233,8.168v-.47a5.907,5.907,0,0,0-5.9-5.9H24.557a2.275,2.275,0,0,0,0,4.551H43.213a1.351,1.351,0,0,1,1.35,1.35v51.482a1.351,1.351,0,0,1-1.35,1.349H4.651a.1.1,0,0,1-.1-.1v-53.98a.1.1,0,0,1,.1-.1H15.46a2.275,2.275,0,0,0,0-4.551H4.651A4.656,4.656,0,0,0,0,303.464v53.98a4.656,4.656,0,0,0,4.651,4.651H43.213a5.907,5.907,0,0,0,5.9-5.9v-1.157l1.333.384a110.678,110.678,0,0,0,30.762,4.359,112.586,112.586,0,0,0,11.732-.615,110.836,110.836,0,0,0,41.124-12.651,2.275,2.275,0,1,0-2.154-4.008,107.044,107.044,0,0,1-80.2,8.544l-2.594-.748v-40.46l38.208-8.382a3.881,3.881,0,0,1,3.063,6.966L75.891,318.61a10.62,10.62,0,0,0,2.658,18.734,57.679,57.679,0,0,0,48.84-5.291l13.935-8.477c4-2.431,9.564.217,9.447,4.17a4.224,4.224,0,0,1-1.537,3.137,107.5,107.5,0,0,1-9.459,6.954,2.275,2.275,0,1,0,2.49,3.809,112.055,112.055,0,0,0,9.86-7.249,8.773,8.773,0,0,0,3.194-6.515c.232-7.84-9.534-12.346-16.36-8.192Z" transform="translate(0 -206.771)" fill="#f9f5e9"/>
  <path id="Path_31" data-name="Path 31" d="M98.375,428.716v-4.935a2.275,2.275,0,0,0-4.551,0v4.935a2.275,2.275,0,0,0,4.551,0Z" transform="translate(-65.361 -293.635)" fill="#f9f5e9"/>
</svg>
