<svg xmlns="http://www.w3.org/2000/svg" width="112.521" height="154.237" viewBox="0 0 112.521 154.237">
  <g id="badge_1_" data-name="badge (1)" transform="translate(-0.001 -0.001)">
    <path id="Path_32" data-name="Path 32" d="M109.7,48.383,102.457,39.6a7.771,7.771,0,0,1-1.747-4.22L99.618,24.045A12.408,12.408,0,0,0,88.477,12.9L77.144,11.813a7.789,7.789,0,0,1-4.22-1.747L64.138,2.822a12.408,12.408,0,0,0-15.755,0L39.6,10.065a7.781,7.781,0,0,1-4.22,1.747L24.045,12.9A12.409,12.409,0,0,0,12.9,24.045L11.813,35.378a7.789,7.789,0,0,1-1.747,4.22L2.822,48.383a12.408,12.408,0,0,0,0,15.755l7.243,8.785a7.789,7.789,0,0,1,1.747,4.22L12.9,88.477A12.409,12.409,0,0,0,24.045,99.618l6.927.667-16.459,39.33a3,3,0,0,0,3.581,4.039l14.28-4.031a.129.129,0,0,1,.151.06l7.151,13a2.971,2.971,0,0,0,2.621,1.552c.052,0,.1,0,.157,0a2.985,2.985,0,0,0,2.615-1.836l17.377-41.527a12.345,12.345,0,0,0,1.7-1.172l8.785-7.242a7.769,7.769,0,0,1,3.863-1.7l15.739,37.607L81.389,135.22a4.687,4.687,0,0,0-5.4,2.258l-5.577,10.14-7.389-17.657a2.287,2.287,0,1,0-4.22,1.765L67.46,152.41a2.98,2.98,0,0,0,2.61,1.824c.053,0,.1,0,.157,0a2.972,2.972,0,0,0,2.621-1.553l7.15-13a.132.132,0,0,1,.151-.062l14.277,4.031a3,3,0,0,0,3.582-4.041L81.549,100.284l6.927-.667a12.406,12.406,0,0,0,11.141-11.14l1.092-11.334a7.767,7.767,0,0,1,1.747-4.219l7.242-8.785A12.4,12.4,0,0,0,109.7,48.383Zm-67.59,99.235-5.578-10.142a4.686,4.686,0,0,0-5.4-2.256L20,138.363l15.738-37.606a7.777,7.777,0,0,1,3.864,1.7l8.785,7.243a12.363,12.363,0,0,0,7.878,2.822c.18,0,.359,0,.539-.013ZM106.17,61.23l-7.242,8.785a12.332,12.332,0,0,0-2.772,6.69L95.065,88.038a7.824,7.824,0,0,1-7.026,7.026l-9.955.959c-.039,0-.079.006-.118.012l-1.26.121a12.34,12.34,0,0,0-6.691,2.771l-8.785,7.242a7.823,7.823,0,0,1-9.936,0l-8.785-7.242a12.331,12.331,0,0,0-6.691-2.771l-1.266-.122c-.035,0-.069-.007-.1-.009l-9.962-.96a7.824,7.824,0,0,1-7.026-7.026L16.367,76.706a12.332,12.332,0,0,0-2.772-6.691L6.353,61.23a7.825,7.825,0,0,1,0-9.937l7.242-8.785a12.332,12.332,0,0,0,2.772-6.691l1.091-11.333a7.824,7.824,0,0,1,7.026-7.026l11.333-1.091a12.34,12.34,0,0,0,6.691-2.771l8.785-7.242a7.822,7.822,0,0,1,9.936,0l8.785,7.242a12.331,12.331,0,0,0,6.691,2.771l11.333,1.091a7.824,7.824,0,0,1,7.026,7.026l1.091,11.333a12.332,12.332,0,0,0,2.772,6.691l7.242,8.785A7.828,7.828,0,0,1,106.17,61.23Zm0,0" transform="translate(0 0)" fill="#f9f5e9"/>
    <path id="Path_33" data-name="Path 33" d="M103.885,68.156a36.084,36.084,0,0,0-4.57.289,2.287,2.287,0,0,0,.58,4.537,31.512,31.512,0,0,1,3.99-.253,31.128,31.128,0,1,1-12.749,2.718,2.287,2.287,0,1,0-1.873-4.173,35.747,35.747,0,1,0,14.622-3.12Zm0,0" transform="translate(-47.624 -47.624)" fill="#f9f5e9"/>
    <path id="Path_34" data-name="Path 34" d="M106.616,145.809a7,7,0,0,0,0,9.89l9.989,9.99a7,7,0,0,0,9.892,0L148.3,143.883a6.994,6.994,0,0,0-9.892-9.892l-16.86,16.861-5.045-5.043A7,7,0,0,0,106.616,145.809Zm14.935,10.566a2.286,2.286,0,0,0,1.617-.671l18.478-18.478a2.42,2.42,0,0,1,3.422,3.422l-21.806,21.807a2.42,2.42,0,0,1-3.422,0l-9.99-9.989a2.42,2.42,0,0,1,3.422-3.423l6.661,6.661A2.287,2.287,0,0,0,121.551,156.375Zm0,0" transform="translate(-73.069 -92.198)" fill="#f9f5e9"/>
  </g>
</svg>
