<svg xmlns="http://www.w3.org/2000/svg" width="155.08" height="150.512" viewBox="0 0 155.08 150.512">
  <g id="transparency_1_" data-name="transparency (1)" transform="translate(0 -7.54)">
    <g id="Group_320" data-name="Group 320" transform="translate(0 7.54)">
      <path id="Path_35" data-name="Path 35" d="M99.729,75.055h40.584a2.272,2.272,0,0,0,0-4.543H99.729a2.272,2.272,0,1,0,0,4.543Z" transform="translate(-67.938 -51.438)" fill="#f9f5e9"/>
      <path id="Path_36" data-name="Path 36" d="M141.512,130.291a2.272,2.272,0,0,0,2.272,2.272h40.481a2.272,2.272,0,1,0,0-4.543H143.784A2.272,2.272,0,0,0,141.512,130.291Z" transform="translate(-98.649 -91.527)" fill="#f9f5e9"/>
      <path id="Path_37" data-name="Path 37" d="M56.012,132.562H74.838a2.272,2.272,0,1,0,0-4.543H56.012a2.272,2.272,0,1,0,0,4.543Z" transform="translate(-37.463 -91.527)" fill="#f9f5e9"/>
      <path id="Path_38" data-name="Path 38" d="M56.012,168.993H98.789a2.272,2.272,0,0,0,0-4.543H56.012a2.272,2.272,0,1,0,0,4.543Z" transform="translate(-37.463 -116.923)" fill="#f9f5e9"/>
      <path id="Path_39" data-name="Path 39" d="M56.012,363.107h27.26a2.272,2.272,0,0,0,0-4.543H56.012a2.272,2.272,0,0,0,0,4.543Z" transform="translate(-37.463 -252.242)" fill="#f9f5e9"/>
      <path id="Path_40" data-name="Path 40" d="M153.922,143.37l-5.779-5.779a2.271,2.271,0,1,0-3.212,3.212l5.365,5.365-7.1,7.1-20.048-20.049,7.1-7.1,7.187,7.187a2.272,2.272,0,0,0,3.213-3.212l-7.6-7.6a3.962,3.962,0,0,0-4.41-.812l-6.313-6.314a38,38,0,0,0,1.625-40.11c.476-.176.981-.349,1.521-.524a3.162,3.162,0,0,0,0-6.016c-6.056-1.956-7.9-3.8-9.854-9.854a3.15,3.15,0,0,0-2.752-2.177V20.2a3.963,3.963,0,0,0-3.958-3.958h-4.74V11.5a3.963,3.963,0,0,0-3.958-3.958H3.958A3.963,3.963,0,0,0,0,11.5V141.726a3.963,3.963,0,0,0,3.958,3.958H8.7v4.74a3.963,3.963,0,0,0,3.958,3.958H33.621a2.272,2.272,0,1,0,0-4.543H13.242v-4.155h86.964a3.963,3.963,0,0,0,3.958-3.958V129.535a37.681,37.681,0,0,0,4.155-1.819v22.123h-64.1a2.272,2.272,0,1,0,0,4.543h64.683a3.963,3.963,0,0,0,3.958-3.958V125.763l5.846,5.846a3.962,3.962,0,0,0,.812,4.409L140.4,156.895a3.963,3.963,0,0,0,5.6,0l7.926-7.926A3.963,3.963,0,0,0,153.922,143.37ZM120.6,71.727a14.64,14.64,0,0,0-8,8,14.643,14.643,0,0,0-8-8,14.639,14.639,0,0,0,8-8A14.638,14.638,0,0,0,120.6,71.727ZM99.746,74.735c6.056,1.956,7.9,3.8,9.854,9.854a3.151,3.151,0,0,0,3.007,2.187h0a3.16,3.16,0,0,0,1.7-.493A24.476,24.476,0,1,1,97.833,70.438a3.162,3.162,0,0,0,1.913,4.3Zm-.124,66.406H4.543V12.083H99.621V32.82a2.272,2.272,0,0,0,4.543,0V20.782h4.155V60.289a37.455,37.455,0,0,0-4.155-1.828V43.421a2.272,2.272,0,1,0-4.543,0V57.107a38.134,38.134,0,0,0-8.582-.977c-1.146,0-2.284.053-3.412.153a2.27,2.27,0,0,0-2.011-1.217H69.423a2.272,2.272,0,0,0,0,4.543h5.714A37.8,37.8,0,0,0,65.429,66.1H18.549a2.272,2.272,0,0,0,0,4.543H61.223a37.564,37.564,0,0,0-5.668,10.115H18.549a2.272,2.272,0,0,0,0,4.543H54.184a38.119,38.119,0,0,0-.942,6.491H18.549a2.272,2.272,0,0,0,0,4.543h34.7a38.079,38.079,0,0,0,.96,6.491H18.549a2.272,2.272,0,1,0,0,4.543H55.593a37.575,37.575,0,0,0,3.179,6.491h-5.2a2.272,2.272,0,1,0,0,4.543h8.491q1.038,1.231,2.194,2.392a37.983,37.983,0,0,0,4.851,4.1H18.549a2.272,2.272,0,1,0,0,4.543H77.633a38.074,38.074,0,0,0,21.988,1.454ZM67.466,117.585a33.35,33.35,0,0,1,39.368-52.949,10.265,10.265,0,0,1-3.854,2.855,29.106,29.106,0,1,0,14.04,13.5,9.862,9.862,0,0,1,2.882-3.65,33.334,33.334,0,0,1-52.436,40.245Zm48.55,4.905q.925-.812,1.81-1.692c.589-.589,1.146-1.2,1.688-1.814l5.723,5.723-3.5,3.5Z" transform="translate(0 -7.54)" fill="#f9f5e9"/>
      <path id="Path_41" data-name="Path 41" d="M257.457,249.007a2.272,2.272,0,0,0,2.272,2.272h21.527a2.272,2.272,0,0,0,0-4.543H259.729a2.272,2.272,0,0,0-2.272,2.272Z" transform="translate(-179.476 -174.285)" fill="#f9f5e9"/>
      <path id="Path_42" data-name="Path 42" d="M247.911,276.94a2.272,2.272,0,0,0,2.272,2.272h27.31a2.272,2.272,0,1,0,0-4.543h-27.31a2.272,2.272,0,0,0-2.272,2.272Z" transform="translate(-172.821 -193.758)" fill="#f9f5e9"/>
      <path id="Path_43" data-name="Path 43" d="M277.493,302.6h-27.31a2.272,2.272,0,1,0,0,4.543h27.31a2.272,2.272,0,1,0,0-4.543Z" transform="translate(-172.821 -213.231)" fill="#f9f5e9"/>
      <path id="Path_44" data-name="Path 44" d="M286.274,330.535H272.459a2.272,2.272,0,1,0,0,4.543h13.815a2.272,2.272,0,0,0,0-4.543Z" transform="translate(-188.35 -232.703)" fill="#f9f5e9"/>
      <path id="Path_45" data-name="Path 45" d="M402.745,155.729h2.114v2.114a2.272,2.272,0,1,0,4.543,0v-2.114h2.114a2.272,2.272,0,1,0,0-4.543H409.4v-2.114a2.272,2.272,0,0,0-4.543,0v2.114h-2.114a2.272,2.272,0,1,0,0,4.543Z" transform="translate(-279.174 -104.62)" fill="#f9f5e9"/>
    </g>
  </g>
</svg>
