<svg xmlns="http://www.w3.org/2000/svg" width="151.021" height="150.997" viewBox="0 0 151.021 150.997">
  <g id="Page-1" transform="translate(0.005 -0.002)">
    <g id="_017---Self-Star-Rating" data-name="017---Self-Star-Rating" transform="translate(-0.005 0.002)">
      <path id="Shape" d="M71.5,83.377a2.517,2.517,0,0,0,1.656,4.754,45.314,45.314,0,1,0-29.677,0,2.518,2.518,0,0,0,1.654-4.757,40.167,40.167,0,0,1-11.995-6.669V73.964A18.941,18.941,0,0,1,45.29,56.257a22.512,22.512,0,0,0,26.028,0A18.941,18.941,0,0,1,83.471,73.964v2.751A40.17,40.17,0,0,1,71.5,83.377ZM40.687,37.748A17.617,17.617,0,1,1,58.3,55.366,17.617,17.617,0,0,1,40.687,37.748ZM75.418,52.529a22.651,22.651,0,1,0-34.248,0A23.977,23.977,0,0,0,28.184,71.976a40.268,40.268,0,1,1,60.241,0A23.967,23.967,0,0,0,75.418,52.529Z" transform="translate(17.211 -0.002)" fill="#f9f5e9"/>
      <path id="Shape-2" data-name="Shape" d="M30.586,99.366a5,5,0,0,0,5.285.405l16.376-8.509,16.374,8.512A5.033,5.033,0,0,0,75.9,94.446L72.791,76.5,85.954,63.81a5.033,5.033,0,0,0-2.768-8.6L64.914,52.58,56.76,36.189a5.04,5.04,0,0,0-9.015-.008l-8.2,16.4L21.314,55.2a5.033,5.033,0,0,0-2.768,8.607L31.713,76.5,28.6,94.446a5.008,5.008,0,0,0,1.986,4.92ZM22.029,60.186l19.535-2.811a2.517,2.517,0,0,0,1.893-1.364l8.788-17.577L61,56.005a2.517,2.517,0,0,0,1.9,1.369l19.575,2.811L68.337,73.8a2.517,2.517,0,0,0-.732,2.242l3.34,19.271L53.41,86.2a2.517,2.517,0,0,0-2.32,0L33.553,95.312l3.34-19.266A2.517,2.517,0,0,0,36.16,73.8Z" transform="translate(23.286 50.655)" fill="#f9f5e9"/>
      <path id="Shape-3" data-name="Shape" d="M12.837,65.591,10.378,79.808a4.548,4.548,0,0,0,6.584,4.84l12.989-6.76,12.981,6.775A2.517,2.517,0,1,0,45.257,80.2L31.113,72.825a2.517,2.517,0,0,0-2.325,0L15.507,79.743l2.517-14.6a2.517,2.517,0,0,0-.732-2.242L6.6,52.585l14.791-2.124a2.517,2.517,0,0,0,1.893-1.367L29.95,35.771,36.59,49.092a2.517,2.517,0,0,0,1.9,1.369l15.8,2.265A2.517,2.517,0,1,0,55,47.743l-14.5-2.076L34.02,32.65a4.53,4.53,0,0,0-4.08-2.517h-.015a4.477,4.477,0,0,0-4.027,2.5L19.38,45.666,4.926,47.74A4.53,4.53,0,0,0,2.41,55.519Z" transform="translate(-0.995 45.7)" fill="#f9f5e9"/>
      <path id="Shape-4" data-name="Shape" d="M94.608,50.836a4.485,4.485,0,0,0-3.674-3.086L76.463,45.674l-6.5-13.029a4.487,4.487,0,0,0-4.027-2.517h-.015a4.53,4.53,0,0,0-4.082,2.517L55.352,45.659l-14.5,2.076a2.517,2.517,0,1,0,.712,4.983l15.805-2.265a2.517,2.517,0,0,0,1.9-1.369l6.624-13.306L72.544,49.1a2.517,2.517,0,0,0,1.893,1.367L89.22,52.59,78.531,62.909a2.517,2.517,0,0,0-.732,2.242l2.529,14.6L67.047,72.822a2.517,2.517,0,0,0-2.325,0L50.578,80.2A2.517,2.517,0,1,0,52.9,84.661L65.892,77.9l12.986,6.775a4.55,4.55,0,0,0,6.579-4.83L83.006,65.6,93.441,55.532a4.53,4.53,0,0,0,1.168-4.7Z" transform="translate(56.183 45.692)" fill="#f9f5e9"/>
      <path id="Shape-5" data-name="Shape" d="M27.012,56.277a2.566,2.566,0,0,0,.362-.028l9.465-1.362a2.517,2.517,0,0,0,1.893-1.364l4.379-8.756a2.521,2.521,0,1,0-4.5-2.265l-3.775,7.578-8.167,1.175a2.517,2.517,0,0,0,.357,5.008Z" transform="translate(34.661 62.355)" fill="#f9f5e9"/>
    </g>
  </g>
</svg>
