<svg id="instagram_6_" data-name="instagram (6)" xmlns="http://www.w3.org/2000/svg" width="46.879" height="46.888" viewBox="0 0 46.879 46.888">
  <path id="Path_5" data-name="Path 5" d="M47.209,13.785A17.133,17.133,0,0,0,46.119,8.1a12.011,12.011,0,0,0-6.861-6.86A17.177,17.177,0,0,0,33.571.147C31.061.028,30.264,0,23.9,0s-7.163.028-9.663.137a17.138,17.138,0,0,0-5.688,1.09A11.441,11.441,0,0,0,4.388,3.939a11.544,11.544,0,0,0-2.7,4.149A17.179,17.179,0,0,0,.6,13.776c-.119,2.51-.147,3.307-.147,9.673s.028,7.163.137,9.663A17.132,17.132,0,0,0,1.677,38.8a12.009,12.009,0,0,0,6.86,6.86,17.18,17.18,0,0,0,5.688,1.09c2.5.11,3.3.137,9.663.137s7.163-.027,9.663-.137a17.129,17.129,0,0,0,5.688-1.09A11.993,11.993,0,0,0,46.1,38.8a17.191,17.191,0,0,0,1.09-5.688c.11-2.5.137-3.3.137-9.663S47.319,16.286,47.209,13.785ZM42.987,32.929a12.852,12.852,0,0,1-.806,4.351,7.778,7.778,0,0,1-4.452,4.452,12.9,12.9,0,0,1-4.351.806c-2.473.11-3.215.137-9.471.137s-7.007-.027-9.471-.137a12.845,12.845,0,0,1-4.351-.806,7.215,7.215,0,0,1-2.693-1.75,7.29,7.29,0,0,1-1.75-2.693,12.9,12.9,0,0,1-.806-4.351c-.11-2.473-.137-3.215-.137-9.471S4.727,16.46,4.837,14a12.845,12.845,0,0,1,.806-4.351A7.127,7.127,0,0,1,7.4,6.952,7.279,7.279,0,0,1,10.094,5.2,12.906,12.906,0,0,1,14.445,4.4c2.473-.11,3.215-.137,9.471-.137s7.007.028,9.471.137a12.852,12.852,0,0,1,4.351.806,7.21,7.21,0,0,1,2.693,1.749,7.288,7.288,0,0,1,1.75,2.693A12.9,12.9,0,0,1,42.987,14c.11,2.473.137,3.215.137,9.471S43.1,30.456,42.987,32.929Zm0,0" transform="translate(-0.449 0)" fill="#206a86"/>
  <path id="Path_6" data-name="Path 6" d="M136.994,124.5a12.045,12.045,0,1,0,12.045,12.045A12.048,12.048,0,0,0,136.994,124.5Zm0,19.858a7.813,7.813,0,1,1,7.813-7.813A7.815,7.815,0,0,1,136.994,144.358Zm0,0" transform="translate(-113.545 -113.096)" fill="#206a86"/>
  <path id="Path_7" data-name="Path 7" d="M368.073,91.414a2.812,2.812,0,1,1-2.812-2.812A2.812,2.812,0,0,1,368.073,91.414Zm0,0" transform="translate(-329.291 -80.486)" fill="#206a86"/>
</svg>
